/* XPM */
static char *e38bc83d51014bfeccd503ba6a5f7b7afdFLUuMBi83RBytK[] = {
/* columns rows colors chars-per-pixel */
"24 24 15 1 ",
"  c gray27",
". c #454C4B",
"X c #487672",
"o c #4B9A92",
"O c #4DAFA6",
"+ c #47615F",
"@ c #4DA9A0",
"# c #4EB7AD",
"$ c #4B9A93",
"% c #497E79",
"& c #487772",
"* c #4DB0A6",
"= c #4CA89F",
"- c #497D78",
"; c #47615E",
/* pixels */
"                        ",
"                        ",
"                        ",
"                        ",
"                        ",
"        .XoOOoX.        ",
"       +@######@+       ",
"      +##$+..+$##+      ",
"     .@#%      %#@.     ",
"     &#$        $#&     ",
"     $#+        +#$     ",
"     *#.        .#O     ",
"     *#.        .#*     ",
"     $#+        +#$     ",
"     &#o        $#&     ",
"     .=#-      %#=.     ",
"      +##o;..;o##+      ",
"       +=######=+       ",
"        .&$**$&.        ",
"                        ",
"                        ",
"                        ",
"                        ",
"                        "
};
