/* XPM */
static char *d179a473f34444bb9f85b807232d26b9gZP7HCdOS3OvbpjI[] = {
/* columns rows colors chars-per-pixel */
"24 24 11 1 ",
"  c gray27",
". c #4A4645",
"X c #8F5046",
"o c #C65847",
"O c #F15F48",
"+ c #494645",
"@ c #9A5246",
"# c #FF6148",
"$ c #CB5947",
"% c #CA5947",
"& c #CC5947",
/* pixels */
"                        ",
"                        ",
"                        ",
"                        ",
"        .XoOOoX+        ",
"       @########@       ",
"      $##########%      ",
"     @############@     ",
"    .##############.    ",
"    X##############X    ",
"    o##############o    ",
"    O##############O    ",
"    O##############O    ",
"    o##############o    ",
"    X##############X    ",
"    .##############.    ",
"     @############@     ",
"      &##########$      ",
"       @########@       ",
"        .XoOOoX.        ",
"                        ",
"                        ",
"                        ",
"                        "
};
