/* XPM */
static char *_e44ef102add4ee3d5c1baf3198f20ccbzpqwoyKjRC3SGVF[] = {
/* columns rows colors chars-per-pixel */
"24 24 19 1 ",
"  c #4EB7AD",
". c #4AACA3",
"X c #39746F",
"o c #2B4543",
"O c #222928",
"+ c #419089",
"@ c #253231",
"# c gray12",
"$ c #2A4442",
"% c #429089",
"& c #4BADA4",
"* c #366A65",
"= c #39746E",
"- c #2B4542",
"; c #222827",
": c #2A4542",
"> c #253130",
", c #366B66",
"< c #429189",
/* pixels */
"                        ",
"                        ",
"                        ",
"                        ",
"                        ",
"        .XoOOoX.        ",
"       +@######@+       ",
"      +##$%&&%$##+      ",
"     .@#*      *#@.     ",
"     =#$        $#=     ",
"     -#%        %#-     ",
"     ;#&        &#O     ",
"     ;#&        &#;     ",
"     -#%        %#-     ",
"     =#:        $#=     ",
"     .>#,      *#>.     ",
"      +##:<&&<:##+      ",
"       +>######>+       ",
"        .=-;;-=.        ",
"                        ",
"                        ",
"                        ",
"                        ",
"                        "
};
