/* XPM */
static char *_54383f3623c40df907ecba52c3aff2bafeo9na4FSHyHB5h[] = {
/* columns rows colors chars-per-pixel */
"24 24 13 1 ",
"  c gray94",
". c gray90",
"X c #A5A5A5",
"o c #6F6F6F",
"O c gray31",
"+ c #C5C5C5",
"@ c #5A5A5A",
"# c gray27",
"$ c #9A9A9A",
"% c #A4A4A4",
"& c gray43",
"* c #4E4E4E",
"= c gray35",
/* pixels */
"                        ",
"                        ",
"                        ",
"                        ",
"                        ",
"        .XoOOoX.        ",
"       +@######@+       ",
"      +##o+..+o##+      ",
"     .@#$      $#@.     ",
"     %#o        o#%     ",
"     &#+        +#&     ",
"     *#.        .#O     ",
"     *#.        .#*     ",
"     &#+        +#&     ",
"     %#o        o#%     ",
"     .=#$      $#=.     ",
"      +##o+..+o##+      ",
"       +=######=+       ",
"        .%&**&%.        ",
"                        ",
"                        ",
"                        ",
"                        ",
"                        "
};
