/* XPM */
static char *_511294606db4dad980115b9b13eb807FWKpz4SZDqV1lx1v[] = {
/* columns rows colors chars-per-pixel */
"24 24 32 1 ",
"  c #2D4E4A",
". c #4EB7AD",
"X c gray12",
"o c #3C7E78",
"O c #232E2D",
"+ c #4BAFA6",
"@ c #1E1E1E",
"# c #335F5B",
"$ c #429089",
"% c #29403E",
"& c #38716B",
"* c #1F2121",
"= c #47A29A",
"- c #2E524E",
"; c #3D837C",
": c #253331",
"> c #4DB4AA",
", c #34645F",
"< c #43958D",
"1 c #2A4542",
"2 c #397670",
"3 c #212525",
"4 c #49A69D",
"5 c #305753",
"6 c #3F8781",
"7 c #263735",
"8 c #356864",
"9 c #449991",
"0 c #2C4946",
"q c #3B7A74",
"w c #222A29",
"e c #4AABA2",
/* pixels */
" .......................",
"Xo......................",
"XO+.....................",
"@X#.....................",
"XXX$....................",
"XXX%....................",
"XXXX&...................",
"XX@X*=..................",
"XXX@X-..................",
"XXXX@X;.................",
"XXXXXX:>................",
"XXXXXXX,................",
"XXXXXXXX<...............",
"XXXXXXXX1...............",
"XXXXXX@@X2..............",
"XXXXXXX@X34.............",
"XXXXXXXX@X5.............",
"XXXXXXXXX@X6............",
"XXXXXXXXXXX7............",
"XXXXXXXXXXXX8...........",
"XXXXXXXXXXXXX9..........",
"XXXXXXXXXXX@X0..........",
"XXXXXXXXXXX@@Xq.........",
"XXXXXXXXXXXX@Xwe........"
};
