/* XPM */
static char *_6c47d642b1341fbe4d42517a35ddcba9YEy7QbUHX8S3vzP[] = {
/* columns rows colors chars-per-pixel */
"24 24 17 1 ",
"  c #282828",
". c gray27",
"X c gray12",
"o c #393939",
"O c gray13",
"+ c gray26",
"@ c #2F2F2F",
"# c #1E1E1E",
"$ c gray23",
"% c gray15",
"& c #343434",
"* c gray25",
"= c #2A2A2A",
"- c #232323",
"; c gray24",
": c #313131",
"> c gray21",
/* pixels */
" .......................",
"Xo......................",
"XO+.....................",
"XX@.....................",
"#XX$....................",
"X#X%....................",
"X#XX&...................",
"XX#XO*..................",
"XXX#X=..................",
"XXX#XXo.................",
"XXXXXX-+................",
"XXXXXXX@................",
"XXXXX#XX;...............",
"XXXXXX#X ...............",
"XXXXXX#XX&..............",
"XXXXXXX#XO+.............",
"XXXXXXXX#X=.............",
"XXXXXXXX#XX$............",
"XXXXXXXXX#X-+...........",
"XXXXXXXXXXXX:...........",
"XXXXXXXXXX#XX*..........",
"XXXXXXXXXXX#X ..........",
"XXXXXXXXXXX#XX>.........",
"XXXXXXXXXXXX#XO+........"
};
